<?xml version="1.0" standalone="no"?>
<!DOCTYPE svg PUBLIC "-//W3C//DTD SVG 20010904//EN"
 "http://www.w3.org/TR/2001/REC-SVG-20010904/DTD/svg10.dtd">
<svg version="1.0" xmlns="http://www.w3.org/2000/svg"
 width="133.000000pt" height="133.000000pt" viewBox="0 0 133.000000 133.000000"
 preserveAspectRatio="xMidYMid meet">
<metadata>
Created by potrace 1.14, written by Peter Selinger 2001-2017
</metadata>
<g transform="translate(0.000000,133.000000) scale(0.100000,-0.100000)"
fill="#000000" stroke="none">
<path d="M570 1319 c-18 -4 -39 -5 -47 -2 -7 3 -13 1 -13 -4 0 -5 -10 -9 -22
-8 -13 1 -29 -2 -35 -8 -7 -5 -13 -6 -13 -2 0 4 -7 1 -17 -6 -9 -8 -18 -13
-20 -11 -5 3 -13 1 -60 -17 -18 -7 -33 -17 -33 -21 0 -5 -8 -11 -18 -14 -23
-8 -82 -63 -103 -96 -9 -14 -28 -55 -42 -92 -22 -55 -27 -82 -27 -157 0 -49
-4 -93 -10 -96 -13 -8 -12 -45 3 -72 14 -25 94 -108 132 -138 15 -11 40 -32
58 -47 17 -14 34 -25 38 -22 4 2 9 -3 13 -11 3 -8 12 -15 21 -15 8 0 15 -4 15
-8 0 -5 7 -9 15 -10 8 -1 21 -3 29 -4 10 -1 15 -29 19 -122 4 -93 11 -139 31
-201 35 -107 49 -124 109 -129 43 -3 50 -1 68 26 14 20 23 53 28 101 l7 72 7
-48 c7 -50 37 -117 59 -133 11 -9 46 -11 88 -5 5 0 16 22 24 49 8 26 15 40 15
32 1 -11 13 -16 41 -17 52 -2 60 13 60 111 0 120 20 97 50 -56 6 -32 17 -61
23 -65 17 -11 77 -12 77 -1 0 5 4 6 10 3 24 -15 62 123 67 245 5 111 -5 155
-47 195 -27 26 -36 29 -105 29 -55 1 -75 5 -75 14 0 7 5 10 10 7 6 -3 13 1 16
9 3 9 10 13 15 10 5 -3 12 2 15 10 3 9 10 14 14 11 10 -6 80 73 80 91 0 8 5
14 10 14 6 0 10 9 10 19 0 11 5 23 10 26 6 3 10 47 10 96 0 104 -23 185 -73
258 -38 56 -92 112 -100 104 -4 -3 -9 2 -13 11 -3 9 -10 13 -15 10 -5 -3 -9 0
-9 6 0 8 -34 28 -60 35 -3 0 -20 9 -38 18 -18 10 -37 15 -42 12 -6 -3 -10 -2
-10 3 0 11 -1 11 -121 14 -53 2 -111 0 -129 -3z"/>
</g>
</svg>
